<?xml version="1.0" encoding="utf-8"?>
<!-- Generator: Adobe Illustrator 16.0.0, SVG Export Plug-In . SVG Version: 6.00 Build 0)  -->
<!DOCTYPE svg PUBLIC "-//W3C//DTD SVG 1.1//EN" "http://www.w3.org/Graphics/SVG/1.1/DTD/svg11.dtd">
<svg version="1.1"
	 id="svg8" xmlns:dc="http://purl.org/dc/elements/1.1/" xmlns:cc="http://creativecommons.org/ns#" xmlns:rdf="http://www.w3.org/1999/02/22-rdf-syntax-ns#" xmlns:svg="http://www.w3.org/2000/svg"
	 xmlns="http://www.w3.org/2000/svg" xmlns:xlink="http://www.w3.org/1999/xlink" x="0px" y="0px" width="100px" height="100px"
	 viewBox="0 0 100 100" enable-background="new 0 0 100 100" xml:space="preserve">
<g>
	<path fill="#FFCA70" d="M11.845,14.699l22.354,1.736c1.4,0.11,2.445,1.332,2.337,2.73l-1.138,14.646
		c-0.109,1.399-1.332,2.444-2.73,2.337L10.314,34.41c-1.399-0.11-2.445-1.332-2.335-2.73l1.137-14.646
		C9.225,15.636,10.446,14.59,11.845,14.699z"/>
	<path fill="none" stroke="#FDF7BB" stroke-width="4" d="M13.959,19.789c-0.163-1.907,0.376-3.865,1.491-5.42
		c0.965-1.347,2.353-2.386,3.917-2.934c1.563-0.548,3.297-0.601,4.891-0.149c1.594,0.451,3.042,1.404,4.089,2.688
		c1.046,1.286,1.684,2.898,1.802,4.55"/>
	<path fill="none" stroke="#EFEC77" stroke-width="2" d="M19.562,19.263c-0.223-0.89-0.213-1.835,0.026-2.721
		c0.241-0.884,0.711-1.706,1.353-2.361c0.777-0.793,1.804-1.337,2.896-1.533c1.094-0.196,2.247-0.043,3.252,0.43
		c1.003,0.474,1.855,1.267,2.398,2.235c0.544,0.968,0.779,2.107,0.661,3.211"/>
	<path fill="#FFEA7C" d="M13.631,15.937l24.196,1.88c1.414,0.109,2.47,1.343,2.36,2.756l-1.148,14.789
		c-0.11,1.414-1.344,2.469-2.756,2.359L12.083,35.84c-1.412-0.109-2.468-1.343-2.358-2.756l1.149-14.788
		C10.984,16.883,12.218,15.827,13.631,15.937z"/>
	<path fill="#FBCFD0" d="M24.714,22.912l30.658,2.38c1.92,0.15,3.354,1.826,3.205,3.744l-1.561,20.086
		c-0.15,1.919-1.826,3.353-3.744,3.205l-30.657-2.383c-1.918-0.149-3.353-1.825-3.203-3.744l1.56-20.085
		C21.121,24.197,22.796,22.763,24.714,22.912z"/>
	<path fill="none" stroke="#F69DA5" stroke-width="4" d="M27.613,29.892c-0.223-2.615,0.516-5.3,2.045-7.433
		c1.323-1.847,3.227-3.272,5.372-4.023c2.145-0.751,4.522-0.824,6.708-0.205c2.187,0.618,4.173,1.926,5.607,3.688
		c1.435,1.763,2.31,3.974,2.472,6.24"/>
	<path fill="none" stroke="#F05075" stroke-width="2" d="M35.298,29.171c-0.306-1.22-0.293-2.517,0.035-3.732
		c0.33-1.213,0.976-2.34,1.855-3.238c1.065-1.088,2.475-1.834,3.973-2.103c1.5-0.269,3.081-0.06,4.46,0.59
		c1.376,0.649,2.544,1.737,3.289,3.065c0.747,1.327,1.068,2.89,0.907,4.404"/>
	<path fill="#F48A8B" d="M27.163,24.61l33.185,2.578c1.938,0.15,3.387,1.843,3.236,3.78L62.009,51.25
		c-0.151,1.938-1.843,3.386-3.78,3.235l-33.187-2.579c-1.936-0.149-3.385-1.842-3.234-3.779l1.575-20.282
		C23.533,25.908,25.225,24.459,27.163,24.61z"/>
	<path fill="#00CCFF" d="M37.539,41.699l40.974,6.147c2.564,0.386,4.33,2.776,3.945,5.338L78.43,80.03
		c-0.386,2.564-2.774,4.33-5.339,3.946l-40.973-6.149c-2.564-0.385-4.331-2.775-3.946-5.339L32.2,45.644
		C32.585,43.08,34.975,41.313,37.539,41.699z"/>
	<path fill="none" stroke="#AAEEFF" stroke-width="4" d="M40.761,51.357c-0.047-3.535,1.204-7.073,3.464-9.793
		c1.957-2.354,4.652-4.087,7.607-4.89c2.956-0.804,6.158-0.672,9.035,0.369c2.879,1.042,5.424,2.99,7.182,5.496
		c1.758,2.507,2.723,5.563,2.721,8.624"/>
	<path fill="none" stroke="#2AD4FF" stroke-width="2" d="M51.16,51.128c-0.294-1.669-0.152-3.41,0.406-5.013
		c0.561-1.599,1.535-3.05,2.805-4.172c1.536-1.36,3.502-2.228,5.541-2.444c2.043-0.217,4.147,0.216,5.937,1.222
		c1.787,1.006,3.253,2.58,4.127,4.436c0.875,1.856,1.157,3.986,0.794,6.007"/>
	<path fill="#80E5FF" d="M40.665,44.217l44.353,6.655c2.588,0.389,4.374,2.803,3.985,5.392L84.934,83.37
		c-0.389,2.589-2.801,4.372-5.391,3.984L35.19,80.698c-2.589-0.388-4.373-2.802-3.984-5.392l4.067-27.105
		C35.663,45.611,38.077,43.828,40.665,44.217z"/>
</g>
</svg>
