<?xml version="1.0" encoding="UTF-8" standalone="no"?>
<svg
   xmlns:dc="http://purl.org/dc/elements/1.1/"
   xmlns:cc="http://creativecommons.org/ns#"
   xmlns:rdf="http://www.w3.org/1999/02/22-rdf-syntax-ns#"
   xmlns:svg="http://www.w3.org/2000/svg"
   xmlns="http://www.w3.org/2000/svg"
   id="svg8"
   version="1.1"
   viewBox="0 0 26.458332 26.458334"
   height="100"
   width="100">
  <defs
     id="defs2" />
  <metadata
     id="metadata5">
    <rdf:RDF>
      <cc:Work
         rdf:about="">
        <dc:format>image/svg+xml</dc:format>
        <dc:type
           rdf:resource="http://purl.org/dc/dcmitype/StillImage" />
        <dc:title></dc:title>
      </cc:Work>
    </rdf:RDF>
  </metadata>
  <g
     transform="translate(0,-270.54165)"
     id="layer1">
    <g
       transform="matrix(0.8702874,0,0,1,4.2311359,5.2916667)"
       id="g1352">
      <path
         id="path1285"
         style="fill:none;stroke:#000000;stroke-width:0.29554316px;stroke-linecap:butt;stroke-linejoin:miter;stroke-opacity:1"
         d="m 5.4239584,282.05103 2.6458333,-8.73125 13.4276043,-1.78594 -3.307291,10.84792" />
      <ellipse
         style="opacity:1;vector-effect:none;fill:#000000;fill-opacity:1;stroke:none;stroke-width:0.52916664;stroke-linecap:round;stroke-linejoin:round;stroke-miterlimit:4;stroke-dasharray:none;stroke-dashoffset:0;stroke-opacity:1;paint-order:stroke fill markers"
         id="path1287"
         cx="5.0270834"
         cy="280.56271"
         rx="1.984375"
         ry="2.0835936" />
      <ellipse
         style="opacity:1;vector-effect:none;fill:#000000;fill-opacity:1;stroke:none;stroke-width:0.52916664;stroke-linecap:round;stroke-linejoin:round;stroke-miterlimit:4;stroke-dasharray:none;stroke-dashoffset:0;stroke-opacity:1;paint-order:stroke fill markers"
         id="path1287-2"
         cx="17.660938"
         cy="281.52185"
         rx="1.984375"
         ry="2.0835936" />
      <path
         style="opacity:1;vector-effect:none;fill:#000000;fill-opacity:1;stroke:#333333;stroke-width:0.13229166;stroke-linecap:round;stroke-linejoin:round;stroke-miterlimit:4;stroke-dasharray:none;stroke-dashoffset:0;stroke-opacity:1;paint-order:stroke fill markers"
         d="m 7.7048774,275.18808 c -0.00143,-0.0273 0.1092439,-0.42376 0.2459339,-0.88106 l 0.2485277,-0.83145 6.517069,-0.8667 c 3.584388,-0.47669 6.521459,-0.86156 6.526823,-0.85527 0.0054,0.006 -0.145641,0.51701 -0.33557,1.13494 -0.330167,1.0742 -0.353805,1.12567 -0.538513,1.17275 -0.106253,0.0271 -1.026625,0.12365 -2.045271,0.21459 -1.018646,0.0909 -3.767525,0.34455 -6.108621,0.56358 -4.5740542,0.42794 -4.5065051,0.42271 -4.5103786,0.34862 z"
         id="path1307" />
    </g>
    <ellipse
       transform="rotate(-17.679551)"
       ry="2.0835936"
       rx="1.984375"
       cy="273.32538"
       cx="-83.635101"
       id="path1287-2-2-0"
       style="opacity:1;vector-effect:none;fill:#000000;fill-opacity:1;stroke:none;stroke-width:0.52916664;stroke-linecap:round;stroke-linejoin:round;stroke-miterlimit:4;stroke-dasharray:none;stroke-dashoffset:0;stroke-opacity:1;paint-order:stroke fill markers" />
    <path
       id="path1328-2"
       d="m 5.0472221,286.65417 c 1.2821182,-8.39252 1.2821182,-8.39252 1.2821182,-8.39252"
       style="fill:none;stroke:#000000;stroke-width:0.26458332px;stroke-linecap:butt;stroke-linejoin:miter;stroke-opacity:1" />
  </g>
</svg>
